<?xml version="1.0" encoding="UTF-8" standalone="no"?>
<svg
   xmlns:dc="http://purl.org/dc/elements/1.1/"
   xmlns:cc="http://creativecommons.org/ns#"
   xmlns:rdf="http://www.w3.org/1999/02/22-rdf-syntax-ns#"
   xmlns:svg="http://www.w3.org/2000/svg"
   xmlns="http://www.w3.org/2000/svg"
   xmlns:sodipodi="http://sodipodi.sourceforge.net/DTD/sodipodi-0.dtd"
   xmlns:inkscape="http://www.inkscape.org/namespaces/inkscape"
   width="68.036163mm"
   height="99.750252mm"
   viewBox="0 0 68.036163 99.750249"
   version="1.1"
   id="svg8"
   inkscape:version="1.0.2 (e86c870879, 2021-01-15, custom)"
   sodipodi:docname="marker.svg">
  <defs
     id="defs2" />
  <sodipodi:namedview
     id="base"
     pagecolor="#ffffff"
     bordercolor="#666666"
     borderopacity="1.0"
     inkscape:pageopacity="0.0"
     inkscape:pageshadow="2"
     inkscape:zoom="1.4"
     inkscape:cx="28.782948"
     inkscape:cy="255.53767"
     inkscape:document-units="mm"
     inkscape:current-layer="layer1"
     inkscape:document-rotation="0"
     showgrid="false"
     fit-margin-top="0"
     fit-margin-left="0"
     fit-margin-right="0"
     fit-margin-bottom="0"
     inkscape:window-width="1920"
     inkscape:window-height="1017"
     inkscape:window-x="-8"
     inkscape:window-y="-8"
     inkscape:window-maximized="1" />
  <metadata
     id="metadata5">
    <rdf:RDF>
      <cc:Work
         rdf:about="">
        <dc:format>image/svg+xml</dc:format>
        <dc:type
           rdf:resource="http://purl.org/dc/dcmitype/StillImage" />
        <dc:title></dc:title>
      </cc:Work>
    </rdf:RDF>
  </metadata>
  <g
     inkscape:label="Layer 1"
     inkscape:groupmode="layer"
     id="layer1"
     transform="translate(-256.26765,-32.506117)">
    <g
       id="g851">
      <path
         id="path833"
         style="fill:#000000;fill-opacity:1;stroke:none;stroke-width:8.5"
         d="m 290.28573,32.506117 a 34.017857,34.017857 0 0 0 -34.01808,34.017561 34.017857,34.017857 0 0 0 34.01808,34.018082 34.017857,34.017857 0 0 0 34.01808,-34.018082 34.017857,34.017857 0 0 0 -34.01808,-34.017561 z m -5.2e-4,14.362946 a 19.654762,19.654762 0 0 1 5.2e-4,0 19.654762,19.654762 0 0 1 19.65461,19.654615 19.654762,19.654762 0 0 1 -19.65461,19.655131 19.654762,19.654762 0 0 1 -19.65461,-19.655131 19.654762,19.654762 0 0 1 19.65409,-19.654615 z" />
      <path
         style="fill:#000000;stroke:none;stroke-width:0.301262px;stroke-linecap:butt;stroke-linejoin:miter;stroke-opacity:1"
         d="m 272.90594,90.991224 17.37978,41.265146 17.37979,-41.265146 z"
         id="path835"
         sodipodi:nodetypes="cccc" />
    </g>
  </g>
</svg>
